{
	"asset":{
		"generator":"Khronos glTF Blender I/O v4.1.63",
		"version":"2.0"
	},
	"scene":0,
	"scenes":[
		{
			"name":"Scene",
			"nodes":[
				0
			]
		}
	],
	"nodes":[
		{
			"mesh":0,
			"name":"Icosphere",
			"rotation":[
				0.33027902245521545,
				0.12455106526613235,
				0.09043912589550018,
				0.9312484264373779
			],
			"scale":[
				0.4999999701976776,
				0.5,
				0.5
			],
			"translation":[
				-0.5224951505661011,
				0.28129714727401733,
				0.21646639704704285
			]
		}
	],
	"materials":[
		{
			"doubleSided":true,
			"name":"Material.001",
			"pbrMetallicRoughness":{
				"baseColorFactor":[
					0.554028332233429,
					0.554028332233429,
					0.554028332233429,
					1
				],
				"metallicFactor":0.7075471878051758,
				"roughnessFactor":0.5
			}
		}
	],
	"meshes":[
		{
			"name":"Icosphere",
			"primitives":[
				{
					"attributes":{
						"POSITION":0,
						"NORMAL":1,
						"TEXCOORD_0":2
					},
					"indices":3,
					"material":0
				}
			]
		}
	],
	"accessors":[
		{
			"bufferView":0,
			"componentType":5126,
			"count":223,
			"max":[
				4.795167446136475,
				0.017492247745394707,
				0.6599999070167542
			],
			"min":[
				-0.9999999403953552,
				-0.46000003814697266,
				-0.6599999070167542
			],
			"type":"VEC3"
		},
		{
			"bufferView":1,
			"componentType":5126,
			"count":223,
			"type":"VEC3"
		},
		{
			"bufferView":2,
			"componentType":5126,
			"count":223,
			"type":"VEC2"
		},
		{
			"bufferView":3,
			"componentType":5123,
			"count":1068,
			"type":"SCALAR"
		}
	],
	"bufferViews":[
		{
			"buffer":0,
			"byteLength":2676,
			"byteOffset":0,
			"target":34962
		},
		{
			"buffer":0,
			"byteLength":2676,
			"byteOffset":2676,
			"target":34962
		},
		{
			"buffer":0,
			"byteLength":1784,
			"byteOffset":5352,
			"target":34962
		},
		{
			"buffer":0,
			"byteLength":2136,
			"byteOffset":7136,
			"target":34963
		}
	],
	"buffers":[
		{
			"byteLength":9272,
			"uri":"spoon.bin"
		}
	]
}
