{
	"asset":{
		"generator":"Khronos glTF Blender I/O v4.1.63",
		"version":"2.0"
	},
	"extensionsUsed":[
		"KHR_materials_specular",
		"KHR_materials_ior"
	],
	"scene":0,
	"scenes":[
		{
			"name":"Scene",
			"nodes":[
				4
			]
		}
	],
	"nodes":[
		{
			"mesh":0,
			"name":"Cube",
			"scale":[
				0.25,
				0.02500000037252903,
				0.02500000037252903
			],
			"translation":[
				-0.28999999165534973,
				0.19999998807907104,
				0
			]
		},
		{
			"mesh":1,
			"name":"Cylinder",
			"scale":[
				1,
				0.10000000149011612,
				1
			]
		},
		{
			"mesh":2,
			"name":"Icosphere",
			"scale":[
				1,
				0.20000000298023224,
				1
			],
			"translation":[
				0,
				0.09999999403953552,
				0
			]
		},
		{
			"mesh":3,
			"name":"Torus.001",
			"rotation":[
				0,
				0.7071068286895752,
				0,
				0.7071068286895752
			]
		},
		{
			"children":[
				0,
				1,
				2,
				3
			],
			"name":"Empty",
			"rotation":[
				0,
				-0.7071068286895752,
				0,
				0.7071068286895752
			],
			"translation":[
				0,
				0.15000000596046448,
				0
			]
		}
	],
	"materials":[
		{
			"doubleSided":true,
			"name":"Material.001",
			"pbrMetallicRoughness":{
				"baseColorFactor":[
					0.800000011920929,
					0.800000011920929,
					0.800000011920929,
					1
				],
				"metallicFactor":0,
				"roughnessFactor":0.5
			}
		},
		{
			"doubleSided":true,
			"extensions":{
				"KHR_materials_specular":{
					"specularFactor":0,
					"specularColorFactor":[
						0.0,
						0.0,
						0.0
					]
				},
				"KHR_materials_ior":{
					"ior":0
				}
			},
			"name":"VantaBlack",
			"pbrMetallicRoughness":{
				"baseColorFactor":[
					0,
					0,
					0,
					1
				],
				"metallicFactor":0,
				"roughnessFactor":0
			}
		},
		{
			"doubleSided":true,
			"name":"Material.004",
			"pbrMetallicRoughness":{
				"baseColorFactor":[
					0.800000011920929,
					0.800000011920929,
					0.800000011920929,
					0.15000000596046448
				],
				"metallicFactor":0.43813401460647583,
				"roughnessFactor":0.2200811505317688
			}
		},
		{
			"doubleSided":true,
			"name":"Material.002",
			"pbrMetallicRoughness":{
				"baseColorFactor":[
					0.02463359385728836,
					0.02463359385728836,
					0.02463359385728836,
					1
				],
				"metallicFactor":0,
				"roughnessFactor":0.5
			}
		}
	],
	"meshes":[
		{
			"name":"Cube.001",
			"primitives":[
				{
					"attributes":{
						"POSITION":0,
						"NORMAL":1,
						"TEXCOORD_0":2
					},
					"indices":3,
					"material":0
				}
			]
		},
		{
			"name":"Cylinder",
			"primitives":[
				{
					"attributes":{
						"POSITION":4,
						"NORMAL":5,
						"TEXCOORD_0":6
					},
					"indices":7,
					"material":1
				}
			]
		},
		{
			"name":"Icosphere",
			"primitives":[
				{
					"attributes":{
						"POSITION":8,
						"NORMAL":9,
						"TEXCOORD_0":10
					},
					"indices":11,
					"material":2
				}
			]
		},
		{
			"name":"Torus.001",
			"primitives":[
				{
					"attributes":{
						"POSITION":12,
						"NORMAL":13,
						"TEXCOORD_0":14
					},
					"indices":15,
					"material":3
				}
			]
		}
	],
	"accessors":[
		{
			"bufferView":0,
			"componentType":5126,
			"count":48,
			"max":[
				1.0984933376312256,
				1,
				1
			],
			"min":[
				-1.1784937381744385,
				-1.0000004768371582,
				-16.431011199951172
			],
			"type":"VEC3"
		},
		{
			"bufferView":1,
			"componentType":5126,
			"count":48,
			"type":"VEC3"
		},
		{
			"bufferView":2,
			"componentType":5126,
			"count":48,
			"type":"VEC2"
		},
		{
			"bufferView":3,
			"componentType":5123,
			"count":72,
			"type":"SCALAR"
		},
		{
			"bufferView":4,
			"componentType":5126,
			"count":192,
			"max":[
				1,
				1,
				1
			],
			"min":[
				-1,
				-1,
				-1
			],
			"type":"VEC3"
		},
		{
			"bufferView":5,
			"componentType":5126,
			"count":192,
			"type":"VEC3"
		},
		{
			"bufferView":6,
			"componentType":5126,
			"count":192,
			"type":"VEC2"
		},
		{
			"bufferView":7,
			"componentType":5123,
			"count":372,
			"type":"SCALAR"
		},
		{
			"bufferView":8,
			"componentType":5126,
			"count":205,
			"max":[
				1,
				1,
				0.9999999403953552
			],
			"min":[
				-0.9999999403953552,
				-1,
				-0.9999999403953552
			],
			"type":"VEC3"
		},
		{
			"bufferView":9,
			"componentType":5126,
			"count":205,
			"type":"VEC3"
		},
		{
			"bufferView":10,
			"componentType":5126,
			"count":205,
			"type":"VEC2"
		},
		{
			"bufferView":11,
			"componentType":5123,
			"count":960,
			"type":"SCALAR"
		},
		{
			"bufferView":12,
			"componentType":5126,
			"count":1118,
			"max":[
				1.149999976158142,
				0.15000000596046448,
				1.149803638458252
			],
			"min":[
				-1.1492146253585815,
				-0.15000000596046448,
				-1.149803638458252
			],
			"type":"VEC3"
		},
		{
			"bufferView":13,
			"componentType":5126,
			"count":1118,
			"type":"VEC3"
		},
		{
			"bufferView":14,
			"componentType":5126,
			"count":1118,
			"type":"VEC2"
		},
		{
			"bufferView":15,
			"componentType":5123,
			"count":6120,
			"type":"SCALAR"
		}
	],
	"bufferViews":[
		{
			"buffer":0,
			"byteLength":576,
			"byteOffset":0,
			"target":34962
		},
		{
			"buffer":0,
			"byteLength":576,
			"byteOffset":576,
			"target":34962
		},
		{
			"buffer":0,
			"byteLength":384,
			"byteOffset":1152,
			"target":34962
		},
		{
			"buffer":0,
			"byteLength":144,
			"byteOffset":1536,
			"target":34963
		},
		{
			"buffer":0,
			"byteLength":2304,
			"byteOffset":1680,
			"target":34962
		},
		{
			"buffer":0,
			"byteLength":2304,
			"byteOffset":3984,
			"target":34962
		},
		{
			"buffer":0,
			"byteLength":1536,
			"byteOffset":6288,
			"target":34962
		},
		{
			"buffer":0,
			"byteLength":744,
			"byteOffset":7824,
			"target":34963
		},
		{
			"buffer":0,
			"byteLength":2460,
			"byteOffset":8568,
			"target":34962
		},
		{
			"buffer":0,
			"byteLength":2460,
			"byteOffset":11028,
			"target":34962
		},
		{
			"buffer":0,
			"byteLength":1640,
			"byteOffset":13488,
			"target":34962
		},
		{
			"buffer":0,
			"byteLength":1920,
			"byteOffset":15128,
			"target":34963
		},
		{
			"buffer":0,
			"byteLength":13416,
			"byteOffset":17048,
			"target":34962
		},
		{
			"buffer":0,
			"byteLength":13416,
			"byteOffset":30464,
			"target":34962
		},
		{
			"buffer":0,
			"byteLength":8944,
			"byteOffset":43880,
			"target":34962
		},
		{
			"buffer":0,
			"byteLength":12240,
			"byteOffset":52824,
			"target":34963
		}
	],
	"buffers":[
		{
			"byteLength":65064,
			"uri":"clock.bin"
		}
	]
}
