{
	"asset":{
		"generator":"Khronos glTF Blender I/O v4.1.63",
		"version":"2.0"
	},
	"scene":0,
	"scenes":[
		{
			"name":"Scene",
			"nodes":[
				4
			]
		}
	],
	"nodes":[
		{
			"mesh":0,
			"name":"Cylinder",
			"scale":[
				0.10000000149011612,
				0.7400000691413879,
				0.10000000149011612
			],
			"translation":[
				0,
				-0.9399999380111694,
				0
			]
		},
		{
			"mesh":1,
			"name":"Cylinder.001",
			"scale":[
				0.9200000762939453,
				0.7599999904632568,
				0.9200000762939453
			],
			"translation":[
				0,
				1.4200000762939453,
				0
			]
		},
		{
			"mesh":2,
			"name":"Icosphere",
			"translation":[
				0,
				0.5800001621246338,
				0
			]
		},
		{
			"mesh":3,
			"name":"Icosphere.001",
			"scale":[
				0.5,
				0.5,
				1
			],
			"translation":[
				0.1588653326034546,
				0.9136860370635986,
				0.38309815526008606
			]
		},
		{
			"children":[
				0,
				1,
				2,
				3
			],
			"name":"Empty",
			"scale":[
				0.30000001192092896,
				0.30000001192092896,
				0.30000001192092896
			],
			"translation":[
				0,
				0.6499999761581421,
				0
			]
		}
	],
	"materials":[
		{
			"doubleSided":true,
			"name":"Material.002",
			"pbrMetallicRoughness":{
				"baseColorFactor":[
					0.800000011920929,
					0.800000011920929,
					0.800000011920929,
					0.3298697769641876
				],
				"metallicFactor":0,
				"roughnessFactor":0.5
			}
		},
		{
			"doubleSided":true,
			"name":"Material.004",
			"pbrMetallicRoughness":{
				"baseColorFactor":[
					0.800000011920929,
					0.800000011920929,
					0.800000011920929,
					0.3298701047897339
				],
				"metallicFactor":0,
				"roughnessFactor":0.5
			}
		},
		{
			"doubleSided":true,
			"name":"Material.001",
			"pbrMetallicRoughness":{
				"baseColorFactor":[
					0.8003778457641602,
					0.7093511819839478,
					0.20894989371299744,
					0.8805195093154907
				],
				"metallicFactor":0,
				"roughnessFactor":0.5
			}
		},
		{
			"doubleSided":true,
			"name":"Material.003",
			"pbrMetallicRoughness":{
				"baseColorFactor":[
					0,
					0,
					0,
					1
				],
				"metallicFactor":0,
				"roughnessFactor":0.5
			}
		}
	],
	"meshes":[
		{
			"name":"Cylinder",
			"primitives":[
				{
					"attributes":{
						"POSITION":0,
						"NORMAL":1,
						"TEXCOORD_0":2
					},
					"indices":3,
					"material":0
				}
			]
		},
		{
			"name":"Cylinder.001",
			"primitives":[
				{
					"attributes":{
						"POSITION":4,
						"NORMAL":5,
						"TEXCOORD_0":6
					},
					"indices":7,
					"material":1
				}
			]
		},
		{
			"name":"Icosphere.001",
			"primitives":[
				{
					"attributes":{
						"POSITION":8,
						"NORMAL":9
					},
					"indices":10,
					"material":2
				}
			]
		},
		{
			"name":"Icosphere.002",
			"primitives":[
				{
					"attributes":{
						"POSITION":11,
						"NORMAL":12
					},
					"indices":13,
					"material":3
				}
			]
		}
	],
	"accessors":[
		{
			"bufferView":0,
			"componentType":5126,
			"count":195,
			"max":[
				10,
				0.8245730996131897,
				10
			],
			"min":[
				-10,
				-1.6216216087341309,
				-10
			],
			"type":"VEC3"
		},
		{
			"bufferView":1,
			"componentType":5126,
			"count":195,
			"type":"VEC3"
		},
		{
			"bufferView":2,
			"componentType":5126,
			"count":195,
			"type":"VEC2"
		},
		{
			"bufferView":3,
			"componentType":5123,
			"count":558,
			"type":"SCALAR"
		},
		{
			"bufferView":4,
			"componentType":5126,
			"count":98,
			"max":[
				1,
				1,
				1
			],
			"min":[
				-1,
				-1,
				-1
			],
			"type":"VEC3"
		},
		{
			"bufferView":5,
			"componentType":5126,
			"count":98,
			"type":"VEC3"
		},
		{
			"bufferView":6,
			"componentType":5126,
			"count":98,
			"type":"VEC2"
		},
		{
			"bufferView":7,
			"componentType":5123,
			"count":282,
			"type":"SCALAR"
		},
		{
			"bufferView":8,
			"componentType":5126,
			"count":642,
			"max":[
				0.9300000071525574,
				0.40067213773727417,
				0.9300000071525574
			],
			"min":[
				-0.9300000071525574,
				-0.9300000071525574,
				-0.9300000071525574
			],
			"type":"VEC3"
		},
		{
			"bufferView":9,
			"componentType":5126,
			"count":642,
			"type":"VEC3"
		},
		{
			"bufferView":10,
			"componentType":5123,
			"count":3840,
			"type":"SCALAR"
		},
		{
			"bufferView":11,
			"componentType":5126,
			"count":240,
			"max":[
				0.16167986392974854,
				0.17000001668930054,
				0.17000001668930054
			],
			"min":[
				-0.16167986392974854,
				-0.17000001668930054,
				-0.17000001668930054
			],
			"type":"VEC3"
		},
		{
			"bufferView":12,
			"componentType":5126,
			"count":240,
			"type":"VEC3"
		},
		{
			"bufferView":13,
			"componentType":5123,
			"count":240,
			"type":"SCALAR"
		}
	],
	"bufferViews":[
		{
			"buffer":0,
			"byteLength":2340,
			"byteOffset":0,
			"target":34962
		},
		{
			"buffer":0,
			"byteLength":2340,
			"byteOffset":2340,
			"target":34962
		},
		{
			"buffer":0,
			"byteLength":1560,
			"byteOffset":4680,
			"target":34962
		},
		{
			"buffer":0,
			"byteLength":1116,
			"byteOffset":6240,
			"target":34963
		},
		{
			"buffer":0,
			"byteLength":1176,
			"byteOffset":7356,
			"target":34962
		},
		{
			"buffer":0,
			"byteLength":1176,
			"byteOffset":8532,
			"target":34962
		},
		{
			"buffer":0,
			"byteLength":784,
			"byteOffset":9708,
			"target":34962
		},
		{
			"buffer":0,
			"byteLength":564,
			"byteOffset":10492,
			"target":34963
		},
		{
			"buffer":0,
			"byteLength":7704,
			"byteOffset":11056,
			"target":34962
		},
		{
			"buffer":0,
			"byteLength":7704,
			"byteOffset":18760,
			"target":34962
		},
		{
			"buffer":0,
			"byteLength":7680,
			"byteOffset":26464,
			"target":34963
		},
		{
			"buffer":0,
			"byteLength":2880,
			"byteOffset":34144,
			"target":34962
		},
		{
			"buffer":0,
			"byteLength":2880,
			"byteOffset":37024,
			"target":34962
		},
		{
			"buffer":0,
			"byteLength":480,
			"byteOffset":39904,
			"target":34963
		}
	],
	"buffers":[
		{
			"byteLength":40384,
			"uri":"drink.bin"
		}
	]
}
