{
	"asset":{
		"generator":"Khronos glTF Blender I/O v4.1.63",
		"version":"2.0"
	},
	"scene":0,
	"scenes":[
		{
			"name":"Scene",
			"nodes":[
				4
			]
		}
	],
	"nodes":[
		{
			"mesh":0,
			"name":"Cylinder",
			"scale":[
				0.10000000149011612,
				0.7400000095367432,
				0.10000000149011612
			],
			"translation":[
				0,
				-0.9399999380111694,
				0
			]
		},
		{
			"mesh":1,
			"name":"Icosphere",
			"translation":[
				0,
				0.6724855899810791,
				0
			]
		},
		{
			"mesh":2,
			"name":"Icosphere.001",
			"scale":[
				0.5,
				0.5,
				1
			],
			"translation":[
				0.1588653326034546,
				1.067800760269165,
				0.38309812545776367
			]
		},
		{
			"mesh":3,
			"name":"Sphere",
			"translation":[
				0,
				0.6620807647705078,
				0
			]
		},
		{
			"children":[
				0,
				1,
				2,
				3
			],
			"name":"Empty",
			"scale":[
				0.5,
				0.5,
				0.5
			],
			"translation":[
				0,
				1.0899999141693115,
				0
			]
		}
	],
	"materials":[
		{
			"doubleSided":true,
			"name":"Glass",
			"pbrMetallicRoughness":{
				"baseColorFactor":[
					0.800000011920929,
					0.800000011920929,
					0.800000011920929,
					0.3298697769641876
				],
				"metallicFactor":0.40566039085388184,
				"roughnessFactor":0
			}
		},
		{
			"doubleSided":true,
			"name":"Liquid",
			"pbrMetallicRoughness":{
				"baseColorFactor":[
					0.8003778457641602,
					0.7093511819839478,
					0.20894989371299744,
					0.6446704864501953
				],
				"metallicFactor":0.22641509771347046,
				"roughnessFactor":0.5
			}
		},
		{
			"doubleSided":true,
			"name":"Material.003",
			"pbrMetallicRoughness":{
				"baseColorFactor":[
					0,
					0,
					0,
					1
				],
				"metallicFactor":0,
				"roughnessFactor":0.5
			}
		}
	],
	"meshes":[
		{
			"name":"Cylinder",
			"primitives":[
				{
					"attributes":{
						"POSITION":0,
						"NORMAL":1,
						"TEXCOORD_0":2
					},
					"indices":3,
					"material":0
				}
			]
		},
		{
			"name":"Icosphere.001",
			"primitives":[
				{
					"attributes":{
						"POSITION":4,
						"NORMAL":5
					},
					"indices":6,
					"material":1
				}
			]
		},
		{
			"name":"Icosphere.002",
			"primitives":[
				{
					"attributes":{
						"POSITION":7,
						"NORMAL":8
					},
					"indices":9,
					"material":2
				}
			]
		},
		{
			"name":"Sphere",
			"primitives":[
				{
					"attributes":{
						"POSITION":10,
						"NORMAL":11,
						"TEXCOORD_0":12
					},
					"indices":13,
					"material":0
				}
			]
		}
	],
	"accessors":[
		{
			"bufferView":0,
			"componentType":5126,
			"count":163,
			"max":[
				10,
				0.8245730996131897,
				10
			],
			"min":[
				-10,
				-1.6216216087341309,
				-10
			],
			"type":"VEC3"
		},
		{
			"bufferView":1,
			"componentType":5126,
			"count":163,
			"type":"VEC3"
		},
		{
			"bufferView":2,
			"componentType":5126,
			"count":163,
			"type":"VEC2"
		},
		{
			"bufferView":3,
			"componentType":5123,
			"count":468,
			"type":"SCALAR"
		},
		{
			"bufferView":4,
			"componentType":5126,
			"count":642,
			"max":[
				0.9300000071525574,
				0.40067213773727417,
				0.9300000071525574
			],
			"min":[
				-0.9300000071525574,
				-0.9300000071525574,
				-0.9300000071525574
			],
			"type":"VEC3"
		},
		{
			"bufferView":5,
			"componentType":5126,
			"count":642,
			"type":"VEC3"
		},
		{
			"bufferView":6,
			"componentType":5123,
			"count":3840,
			"type":"SCALAR"
		},
		{
			"bufferView":7,
			"componentType":5126,
			"count":42,
			"max":[
				0.16167986392974854,
				0.17000001668930054,
				0.17000001668930054
			],
			"min":[
				-0.16167986392974854,
				-0.17000001668930054,
				-0.17000001668930054
			],
			"type":"VEC3"
		},
		{
			"bufferView":8,
			"componentType":5126,
			"count":42,
			"type":"VEC3"
		},
		{
			"bufferView":9,
			"componentType":5123,
			"count":240,
			"type":"SCALAR"
		},
		{
			"bufferView":10,
			"componentType":5126,
			"count":780,
			"max":[
				0.9999998807907104,
				1.5257182121276855,
				0.9999997615814209
			],
			"min":[
				-0.9999997019767761,
				-0.9919624328613281,
				-0.9999995827674866
			],
			"type":"VEC3"
		},
		{
			"bufferView":11,
			"componentType":5126,
			"count":780,
			"type":"VEC3"
		},
		{
			"bufferView":12,
			"componentType":5126,
			"count":780,
			"type":"VEC2"
		},
		{
			"bufferView":13,
			"componentType":5123,
			"count":4224,
			"type":"SCALAR"
		}
	],
	"bufferViews":[
		{
			"buffer":0,
			"byteLength":1956,
			"byteOffset":0,
			"target":34962
		},
		{
			"buffer":0,
			"byteLength":1956,
			"byteOffset":1956,
			"target":34962
		},
		{
			"buffer":0,
			"byteLength":1304,
			"byteOffset":3912,
			"target":34962
		},
		{
			"buffer":0,
			"byteLength":936,
			"byteOffset":5216,
			"target":34963
		},
		{
			"buffer":0,
			"byteLength":7704,
			"byteOffset":6152,
			"target":34962
		},
		{
			"buffer":0,
			"byteLength":7704,
			"byteOffset":13856,
			"target":34962
		},
		{
			"buffer":0,
			"byteLength":7680,
			"byteOffset":21560,
			"target":34963
		},
		{
			"buffer":0,
			"byteLength":504,
			"byteOffset":29240,
			"target":34962
		},
		{
			"buffer":0,
			"byteLength":504,
			"byteOffset":29744,
			"target":34962
		},
		{
			"buffer":0,
			"byteLength":480,
			"byteOffset":30248,
			"target":34963
		},
		{
			"buffer":0,
			"byteLength":9360,
			"byteOffset":30728,
			"target":34962
		},
		{
			"buffer":0,
			"byteLength":9360,
			"byteOffset":40088,
			"target":34962
		},
		{
			"buffer":0,
			"byteLength":6240,
			"byteOffset":49448,
			"target":34962
		},
		{
			"buffer":0,
			"byteLength":8448,
			"byteOffset":55688,
			"target":34963
		}
	],
	"buffers":[
		{
			"byteLength":64136,
			"uri":"drink.bin"
		}
	]
}
