<?xml version="1.0" standalone="no"?>
<!DOCTYPE svg PUBLIC "-//W3C//DTD SVG 20010904//EN"
 "http://www.w3.org/TR/2001/REC-SVG-20010904/DTD/svg10.dtd">
<svg version="1.0" xmlns="http://www.w3.org/2000/svg"
 width="800.000000pt" height="800.000000pt" viewBox="0 0 800.000000 800.000000"
 preserveAspectRatio="xMidYMid meet">
<metadata>
Created by potrace 1.14, written by Peter Selinger 2001-2017
</metadata>
<g transform="translate(0.000000,800.000000) scale(0.100000,-0.100000)"
fill="#000000" stroke="none">
<path d="M3818 7905 c-2 -2 -51 -6 -109 -9 -58 -4 -116 -8 -130 -10 -13 -3
-51 -8 -84 -11 -99 -12 -102 -13 -132 -19 -15 -3 -44 -8 -63 -11 -153 -23
-552 -134 -685 -190 -16 -7 -61 -25 -100 -40 -290 -115 -659 -331 -932 -546
-223 -175 -477 -429 -667 -669 -78 -99 -215 -300 -282 -415 -16 -27 -34 -59
-41 -70 -15 -26 -156 -309 -176 -355 -73 -166 -177 -468 -203 -588 -2 -12 -13
-59 -24 -105 -10 -45 -21 -93 -24 -107 -2 -14 -9 -54 -16 -90 -7 -36 -14 -76
-15 -90 -6 -59 -16 -136 -20 -150 -24 -93 -25 -722 -1 -847 2 -10 7 -47 11
-83 4 -36 9 -72 10 -82 2 -9 7 -38 11 -65 5 -26 9 -50 9 -53 1 -3 5 -25 9 -50
4 -25 15 -72 23 -105 8 -33 17 -71 20 -85 8 -46 64 -234 103 -345 155 -446
373 -829 695 -1224 145 -177 434 -454 625 -596 41 -31 84 -63 95 -72 85 -70
408 -262 570 -339 281 -133 628 -256 819 -290 16 -3 32 -7 35 -9 4 -2 59 -13
124 -25 119 -21 129 -23 227 -35 30 -3 62 -8 70 -10 39 -10 245 -19 435 -19
223 0 355 8 505 29 19 3 53 8 75 10 22 3 47 7 55 10 8 2 35 7 60 10 25 3 52 7
60 10 8 2 26 6 40 9 187 34 541 146 740 234 174 76 471 232 511 268 8 8 18 14
22 14 13 0 253 167 327 227 8 6 42 34 75 60 87 70 124 104 269 245 260 253
448 499 666 868 38 65 146 286 185 380 26 63 54 129 61 145 46 111 160 509
177 620 3 17 10 59 17 95 7 36 14 76 15 90 6 59 16 136 20 150 24 92 24 724 1
847 -2 10 -7 47 -11 83 -4 36 -9 72 -10 82 -2 9 -7 38 -11 65 -5 26 -9 50 -9
53 -1 3 -5 25 -9 50 -54 300 -172 648 -326 965 -380 778 -1018 1416 -1795
1795 -264 129 -635 261 -829 296 -16 3 -32 7 -36 9 -8 5 -280 52 -345 60 -27
3 -63 8 -80 10 -91 14 -596 30 -607 20z"/>
</g>
</svg>
