{
	"asset":{
		"generator":"Khronos glTF Blender I/O v4.1.63",
		"version":"2.0"
	},
	"scene":0,
	"scenes":[
		{
			"name":"Scene",
			"nodes":[
				0
			]
		}
	],
	"nodes":[
		{
			"mesh":0,
			"name":"Sphere",
			"rotation":[
				-0.3535533845424652,
				0.3535534143447876,
				-0.6123724579811096,
				0.6123723983764648
			],
			"scale":[
				0.25,
				0.25,
				0.25
			],
			"translation":[
				0,
				0.25,
				0
			]
		}
	],
	"materials":[
		{
			"doubleSided":true,
			"name":"Plane",
			"pbrMetallicRoughness":{
				"baseColorFactor":[
					0.6009407639503479,
					0.6009407639503479,
					0.6009407639503479,
					1
				],
				"metallicFactor":0,
				"roughnessFactor":0.5
			}
		},
		{
			"doubleSided":true,
			"name":"Windows",
			"pbrMetallicRoughness":{
				"baseColorFactor":[
					0,
					0,
					0,
					1
				],
				"metallicFactor":0,
				"roughnessFactor":0.5
			}
		}
	],
	"meshes":[
		{
			"name":"Sphere",
			"primitives":[
				{
					"attributes":{
						"POSITION":0,
						"NORMAL":1,
						"TEXCOORD_0":2
					},
					"indices":3,
					"material":0
				},
				{
					"attributes":{
						"POSITION":4,
						"NORMAL":5,
						"TEXCOORD_0":6
					},
					"indices":7,
					"material":1
				}
			]
		}
	],
	"accessors":[
		{
			"bufferView":0,
			"componentType":5126,
			"count":585,
			"max":[
				0.9999997019767761,
				7.319999694824219,
				6.69886589050293
			],
			"min":[
				-1.5761632919311523,
				-7.319999694824219,
				-6.698869705200195
			],
			"type":"VEC3"
		},
		{
			"bufferView":1,
			"componentType":5126,
			"count":585,
			"type":"VEC3"
		},
		{
			"bufferView":2,
			"componentType":5126,
			"count":585,
			"type":"VEC2"
		},
		{
			"bufferView":3,
			"componentType":5123,
			"count":2976,
			"type":"SCALAR"
		},
		{
			"bufferView":4,
			"componentType":5126,
			"count":20,
			"max":[
				-0.31818944215774536,
				-6.424577713012695,
				0.2606326937675476
			],
			"min":[
				-0.46011239290237427,
				-6.762797832489014,
				-0.26063281297683716
			],
			"type":"VEC3"
		},
		{
			"bufferView":5,
			"componentType":5126,
			"count":20,
			"type":"VEC3"
		},
		{
			"bufferView":6,
			"componentType":5126,
			"count":20,
			"type":"VEC2"
		},
		{
			"bufferView":7,
			"componentType":5123,
			"count":48,
			"type":"SCALAR"
		}
	],
	"bufferViews":[
		{
			"buffer":0,
			"byteLength":7020,
			"byteOffset":0,
			"target":34962
		},
		{
			"buffer":0,
			"byteLength":7020,
			"byteOffset":7020,
			"target":34962
		},
		{
			"buffer":0,
			"byteLength":4680,
			"byteOffset":14040,
			"target":34962
		},
		{
			"buffer":0,
			"byteLength":5952,
			"byteOffset":18720,
			"target":34963
		},
		{
			"buffer":0,
			"byteLength":240,
			"byteOffset":24672,
			"target":34962
		},
		{
			"buffer":0,
			"byteLength":240,
			"byteOffset":24912,
			"target":34962
		},
		{
			"buffer":0,
			"byteLength":160,
			"byteOffset":25152,
			"target":34962
		},
		{
			"buffer":0,
			"byteLength":96,
			"byteOffset":25312,
			"target":34963
		}
	],
	"buffers":[
		{
			"byteLength":25408,
			"uri":"plane.bin"
		}
	]
}
