{
	"asset":{
		"generator":"Khronos glTF Blender I/O v4.1.63",
		"version":"2.0"
	},
	"scene":0,
	"scenes":[
		{
			"name":"Scene",
			"nodes":[
				2
			]
		}
	],
	"nodes":[
		{
			"mesh":0,
			"name":"Cylinder",
			"rotation":[
				0.7071068286895752,
				0,
				0,
				0.7071068286895752
			],
			"scale":[
				1,
				0.10000000894069672,
				1
			]
		},
		{
			"mesh":1,
			"name":"Text",
			"rotation":[
				0.7071068286895752,
				0,
				0,
				0.7071068286895752
			],
			"scale":[
				1.5,
				1.5,
				1.5
			],
			"translation":[
				-0.4100000262260437,
				-0.4599999189376831,
				0.09999999403953552
			]
		},
		{
			"children":[
				0,
				1
			],
			"name":"Empty",
			"scale":[
				0.75,
				0.75,
				0.75
			],
			"translation":[
				0,
				0.75,
				0
			]
		}
	],
	"materials":[
		{
			"doubleSided":true,
			"name":"Material.001",
			"pbrMetallicRoughness":{
				"baseColorFactor":[
					0.5583369731903076,
					0.5583409667015076,
					0.5583407282829285,
					1
				],
				"metallicFactor":0.8999999761581421,
				"roughnessFactor":0.5
			}
		},
		{
			"doubleSided":true,
			"name":"Material.002",
			"pbrMetallicRoughness":{
				"baseColorFactor":[
					0.8055112361907959,
					0.8055195808410645,
					0.8055195808410645,
					1
				],
				"roughnessFactor":0.3857142925262451
			}
		}
	],
	"meshes":[
		{
			"name":"Cylinder",
			"primitives":[
				{
					"attributes":{
						"POSITION":0,
						"NORMAL":1,
						"TEXCOORD_0":2
					},
					"indices":3,
					"material":0
				}
			]
		},
		{
			"name":"Text",
			"primitives":[
				{
					"attributes":{
						"POSITION":4,
						"NORMAL":5,
						"TEXCOORD_0":6
					},
					"indices":7,
					"material":1
				}
			]
		}
	],
	"accessors":[
		{
			"bufferView":0,
			"componentType":5126,
			"count":305,
			"max":[
				1,
				0.9701003432273865,
				1
			],
			"min":[
				-1,
				-1,
				-1
			],
			"type":"VEC3"
		},
		{
			"bufferView":1,
			"componentType":5126,
			"count":305,
			"type":"VEC3"
		},
		{
			"bufferView":2,
			"componentType":5126,
			"count":305,
			"type":"VEC2"
		},
		{
			"bufferView":3,
			"componentType":5123,
			"count":756,
			"type":"SCALAR"
		},
		{
			"bufferView":4,
			"componentType":5126,
			"count":630,
			"max":[
				0.5020000338554382,
				0.019999999552965164,
				0.11800000816583633
			],
			"min":[
				0.05100000277161598,
				-0.019999999552965164,
				-0.6910000443458557
			],
			"type":"VEC3"
		},
		{
			"bufferView":5,
			"componentType":5126,
			"count":630,
			"type":"VEC3"
		},
		{
			"bufferView":6,
			"componentType":5126,
			"count":630,
			"type":"VEC2"
		},
		{
			"bufferView":7,
			"componentType":5123,
			"count":1884,
			"type":"SCALAR"
		}
	],
	"bufferViews":[
		{
			"buffer":0,
			"byteLength":3660,
			"byteOffset":0,
			"target":34962
		},
		{
			"buffer":0,
			"byteLength":3660,
			"byteOffset":3660,
			"target":34962
		},
		{
			"buffer":0,
			"byteLength":2440,
			"byteOffset":7320,
			"target":34962
		},
		{
			"buffer":0,
			"byteLength":1512,
			"byteOffset":9760,
			"target":34963
		},
		{
			"buffer":0,
			"byteLength":7560,
			"byteOffset":11272,
			"target":34962
		},
		{
			"buffer":0,
			"byteLength":7560,
			"byteOffset":18832,
			"target":34962
		},
		{
			"buffer":0,
			"byteLength":5040,
			"byteOffset":26392,
			"target":34962
		},
		{
			"buffer":0,
			"byteLength":3768,
			"byteOffset":31432,
			"target":34963
		}
	],
	"buffers":[
		{
			"byteLength":35200,
			"uri":"coin.bin"
		}
	]
}
