{
	"asset":{
		"generator":"Khronos glTF Blender I/O v4.1.63",
		"version":"2.0"
	},
	"scene":0,
	"scenes":[
		{
			"name":"Scene",
			"nodes":[
				18
			]
		}
	],
	"nodes":[
		{
			"mesh":0,
			"name":"Icosphere.003",
			"scale":[
				4.166666507720947,
				4.166666507720947,
				0.8333332538604736
			],
			"translation":[
				1.6869287490844727,
				1.5150127410888672,
				0
			]
		},
		{
			"mesh":1,
			"name":"Circle",
			"translation":[
				0,
				0,
				-3.0590286254882812
			]
		},
		{
			"mesh":2,
			"name":"Plane",
			"rotation":[
				0,
				-0.35732489824295044,
				0,
				0.9339801669120789
			],
			"scale":[
				0.04220199957489967,
				0.5692862272262573,
				1.1282199621200562
			],
			"translation":[
				-0.7611021995544434,
				0,
				-0.9812164902687073
			]
		},
		{
			"mesh":3,
			"name":"Plane.001",
			"scale":[
				0.0741317868232727,
				1,
				1.9818215370178223
			],
			"translation":[
				0,
				0,
				-0.1415444314479828
			]
		},
		{
			"mesh":4,
			"name":"Plane.002",
			"rotation":[
				0,
				0.14423908293247223,
				0,
				0.9895429015159607
			],
			"scale":[
				0.06439366936683655,
				0.8686376810073853,
				1.2456086874008179
			],
			"translation":[
				0.34636449813842773,
				0,
				2.922412872314453
			]
		},
		{
			"mesh":5,
			"name":"Plane.003",
			"rotation":[
				-0.3573249578475952,
				0,
				-0.9339801073074341,
				8.09388467359895e-08
			],
			"scale":[
				0.04220220074057579,
				0.5692862272262573,
				1.1282236576080322
			],
			"translation":[
				0.77532958984375,
				0,
				-0.9812164902687073
			]
		},
		{
			"mesh":6,
			"name":"Plane.004",
			"rotation":[
				0.14423905313014984,
				0,
				-0.9895429015159607,
				7.650819355831118e-08
			],
			"scale":[
				0.06439366936683655,
				0.8686376810073853,
				1.2456086874008179
			],
			"translation":[
				-0.3471837043762207,
				0,
				2.922412872314453
			]
		},
		{
			"children":[
				1,
				2,
				3,
				4,
				5,
				6
			],
			"name":"Person",
			"rotation":[
				0.7071068286895752,
				0,
				0,
				0.7071067690849304
			],
			"scale":[
				0.3541065752506256,
				0.3541065752506256,
				0.3541065752506256
			],
			"translation":[
				1.202709674835205,
				1.757194995880127,
				0.699085533618927
			]
		},
		{
			"mesh":7,
			"name":"Circle.001",
			"translation":[
				0,
				0,
				-3.0590286254882812
			]
		},
		{
			"mesh":8,
			"name":"Plane.005",
			"rotation":[
				0.14423906803131104,
				0,
				-0.9895429015159607,
				7.650820776916589e-08
			],
			"scale":[
				0.06439366191625595,
				0.8686376214027405,
				1.2456086874008179
			],
			"translation":[
				-0.3471832275390625,
				0,
				2.922412872314453
			]
		},
		{
			"mesh":9,
			"name":"Plane.006",
			"rotation":[
				-0.3573249578475952,
				0,
				-0.9339801073074341,
				8.09388467359895e-08
			],
			"scale":[
				0.04220220074057579,
				0.5692862272262573,
				1.1282236576080322
			],
			"translation":[
				0.77532958984375,
				0,
				-0.981216549873352
			]
		},
		{
			"mesh":10,
			"name":"Plane.007",
			"rotation":[
				0,
				0.14423909783363342,
				0,
				0.9895428419113159
			],
			"scale":[
				0.06439366936683655,
				0.8686376214027405,
				1.2456086874008179
			],
			"translation":[
				0.34636497497558594,
				0,
				2.922412872314453
			]
		},
		{
			"mesh":11,
			"name":"Plane.008",
			"scale":[
				0.0741317868232727,
				1,
				1.9818214178085327
			],
			"translation":[
				0,
				0,
				-0.1415444314479828
			]
		},
		{
			"mesh":12,
			"name":"Plane.009",
			"rotation":[
				0,
				-0.35732489824295044,
				0,
				0.9339801669120789
			],
			"scale":[
				0.04220199957489967,
				0.5692862272262573,
				1.1282199621200562
			],
			"translation":[
				-0.7611026763916016,
				0,
				-0.981216549873352
			]
		},
		{
			"children":[
				8,
				9,
				10,
				11,
				12,
				13
			],
			"name":"Person.001",
			"rotation":[
				0.7071068286895752,
				0,
				0,
				0.7071068286895752
			],
			"scale":[
				0.3166666328907013,
				0.3541066348552704,
				0.3166666328907013
			],
			"translation":[
				2.3361971378326416,
				1.6336798667907715,
				0.699085533618927
			]
		},
		{
			"mesh":13,
			"name":"Text",
			"rotation":[
				0.7071068286895752,
				0,
				0,
				0.7071068286895752
			],
			"scale":[
				0.8333332538604736,
				0.8333332538604736,
				0.8333332538604736
			],
			"translation":[
				-5.44462251663208,
				-5.618725299835205,
				0
			]
		},
		{
			"mesh":14,
			"name":"Text.001",
			"rotation":[
				0.7071068286895752,
				0,
				0,
				0.7071068286895752
			],
			"scale":[
				2.499999761581421,
				2.499999761581421,
				2.499999761581421
			],
			"translation":[
				-3.505290985107422,
				-2.7847230434417725,
				0
			]
		},
		{
			"mesh":15,
			"name":"Text.002",
			"rotation":[
				0.7071068286895752,
				0,
				0,
				0.7071068286895752
			],
			"scale":[
				1.6666665077209473,
				1.6666665077209473,
				1.6666665077209473
			],
			"translation":[
				-5.127663612365723,
				-4.500124931335449,
				0
			]
		},
		{
			"children":[
				0,
				7,
				14,
				15,
				16,
				17
			],
			"name":"Empty",
			"scale":[
				0.1570802628993988,
				0.1570802628993988,
				0.1570802628993988
			],
			"translation":[
				0.1858493983745575,
				0.8992778062820435,
				0
			]
		}
	],
	"materials":[
		{
			"doubleSided":true,
			"name":"Cloud",
			"pbrMetallicRoughness":{
				"metallicFactor":0,
				"roughnessFactor":0.849056601524353
			}
		},
		{
			"doubleSided":true,
			"name":"Person",
			"pbrMetallicRoughness":{
				"baseColorFactor":[
					0,
					0,
					0,
					1
				],
				"metallicFactor":0,
				"roughnessFactor":0.5
			}
		},
		{
			"doubleSided":true,
			"name":"Person.001",
			"pbrMetallicRoughness":{
				"baseColorFactor":[
					0,
					0,
					0,
					1
				],
				"metallicFactor":0,
				"roughnessFactor":0.5
			}
		}
	],
	"meshes":[
		{
			"name":"Icosphere.003",
			"primitives":[
				{
					"attributes":{
						"POSITION":0,
						"NORMAL":1,
						"TEXCOORD_0":2
					},
					"indices":3,
					"material":0
				}
			]
		},
		{
			"name":"Circle.001",
			"primitives":[
				{
					"attributes":{
						"POSITION":4,
						"NORMAL":5,
						"TEXCOORD_0":6
					},
					"indices":7,
					"material":1
				}
			]
		},
		{
			"name":"Plane",
			"primitives":[
				{
					"attributes":{
						"POSITION":8,
						"NORMAL":9,
						"TEXCOORD_0":10
					},
					"indices":11,
					"material":1
				}
			]
		},
		{
			"name":"Plane.001",
			"primitives":[
				{
					"attributes":{
						"POSITION":12,
						"NORMAL":13,
						"TEXCOORD_0":14
					},
					"indices":11,
					"material":1
				}
			]
		},
		{
			"name":"Plane.002",
			"primitives":[
				{
					"attributes":{
						"POSITION":15,
						"NORMAL":16,
						"TEXCOORD_0":17
					},
					"indices":11,
					"material":1
				}
			]
		},
		{
			"name":"Plane.003",
			"primitives":[
				{
					"attributes":{
						"POSITION":18,
						"NORMAL":19,
						"TEXCOORD_0":20
					},
					"indices":11,
					"material":1
				}
			]
		},
		{
			"name":"Plane.004",
			"primitives":[
				{
					"attributes":{
						"POSITION":21,
						"NORMAL":22,
						"TEXCOORD_0":23
					},
					"indices":11,
					"material":1
				}
			]
		},
		{
			"name":"Circle.002",
			"primitives":[
				{
					"attributes":{
						"POSITION":24,
						"NORMAL":25,
						"TEXCOORD_0":26
					},
					"indices":7,
					"material":2
				}
			]
		},
		{
			"name":"Plane.005",
			"primitives":[
				{
					"attributes":{
						"POSITION":27,
						"NORMAL":28,
						"TEXCOORD_0":29
					},
					"indices":11,
					"material":2
				}
			]
		},
		{
			"name":"Plane.006",
			"primitives":[
				{
					"attributes":{
						"POSITION":30,
						"NORMAL":31,
						"TEXCOORD_0":32
					},
					"indices":11,
					"material":2
				}
			]
		},
		{
			"name":"Plane.007",
			"primitives":[
				{
					"attributes":{
						"POSITION":33,
						"NORMAL":34,
						"TEXCOORD_0":35
					},
					"indices":11,
					"material":2
				}
			]
		},
		{
			"name":"Plane.008",
			"primitives":[
				{
					"attributes":{
						"POSITION":36,
						"NORMAL":37,
						"TEXCOORD_0":38
					},
					"indices":11,
					"material":2
				}
			]
		},
		{
			"name":"Plane.009",
			"primitives":[
				{
					"attributes":{
						"POSITION":39,
						"NORMAL":40,
						"TEXCOORD_0":41
					},
					"indices":11,
					"material":2
				}
			]
		},
		{
			"name":"Text",
			"primitives":[
				{
					"attributes":{
						"POSITION":42,
						"NORMAL":43,
						"TEXCOORD_0":44
					},
					"indices":45,
					"material":0
				}
			]
		},
		{
			"name":"Text.001",
			"primitives":[
				{
					"attributes":{
						"POSITION":46,
						"NORMAL":47,
						"TEXCOORD_0":48
					},
					"indices":45,
					"material":0
				}
			]
		},
		{
			"name":"Text.002",
			"primitives":[
				{
					"attributes":{
						"POSITION":49,
						"NORMAL":50,
						"TEXCOORD_0":51
					},
					"indices":45,
					"material":0
				}
			]
		}
	],
	"accessors":[
		{
			"bufferView":0,
			"componentType":5126,
			"count":205,
			"max":[
				1,
				1,
				0.9492964744567871
			],
			"min":[
				-0.9999999403953552,
				-1,
				-0.9999999403953552
			],
			"type":"VEC3"
		},
		{
			"bufferView":1,
			"componentType":5126,
			"count":205,
			"type":"VEC3"
		},
		{
			"bufferView":2,
			"componentType":5126,
			"count":205,
			"type":"VEC2"
		},
		{
			"bufferView":3,
			"componentType":5123,
			"count":960,
			"type":"SCALAR"
		},
		{
			"bufferView":4,
			"componentType":5126,
			"count":25,
			"max":[
				0.9980267286300659,
				0,
				0.9921147227287292
			],
			"min":[
				-0.9980267286300659,
				0,
				-1
			],
			"type":"VEC3"
		},
		{
			"bufferView":5,
			"componentType":5126,
			"count":25,
			"type":"VEC3"
		},
		{
			"bufferView":6,
			"componentType":5126,
			"count":25,
			"type":"VEC2"
		},
		{
			"bufferView":7,
			"componentType":5123,
			"count":69,
			"type":"SCALAR"
		},
		{
			"bufferView":8,
			"componentType":5126,
			"count":4,
			"max":[
				1,
				0,
				1
			],
			"min":[
				-1,
				0,
				-1
			],
			"type":"VEC3"
		},
		{
			"bufferView":9,
			"componentType":5126,
			"count":4,
			"type":"VEC3"
		},
		{
			"bufferView":10,
			"componentType":5126,
			"count":4,
			"type":"VEC2"
		},
		{
			"bufferView":11,
			"componentType":5123,
			"count":6,
			"type":"SCALAR"
		},
		{
			"bufferView":12,
			"componentType":5126,
			"count":4,
			"max":[
				1,
				0,
				1
			],
			"min":[
				-1,
				0,
				-1
			],
			"type":"VEC3"
		},
		{
			"bufferView":13,
			"componentType":5126,
			"count":4,
			"type":"VEC3"
		},
		{
			"bufferView":14,
			"componentType":5126,
			"count":4,
			"type":"VEC2"
		},
		{
			"bufferView":15,
			"componentType":5126,
			"count":4,
			"max":[
				1,
				0,
				1
			],
			"min":[
				-1,
				0,
				-1
			],
			"type":"VEC3"
		},
		{
			"bufferView":16,
			"componentType":5126,
			"count":4,
			"type":"VEC3"
		},
		{
			"bufferView":17,
			"componentType":5126,
			"count":4,
			"type":"VEC2"
		},
		{
			"bufferView":18,
			"componentType":5126,
			"count":4,
			"max":[
				1,
				0,
				1
			],
			"min":[
				-1,
				0,
				-1
			],
			"type":"VEC3"
		},
		{
			"bufferView":19,
			"componentType":5126,
			"count":4,
			"type":"VEC3"
		},
		{
			"bufferView":20,
			"componentType":5126,
			"count":4,
			"type":"VEC2"
		},
		{
			"bufferView":21,
			"componentType":5126,
			"count":4,
			"max":[
				1,
				0,
				1
			],
			"min":[
				-1,
				0,
				-1
			],
			"type":"VEC3"
		},
		{
			"bufferView":22,
			"componentType":5126,
			"count":4,
			"type":"VEC3"
		},
		{
			"bufferView":23,
			"componentType":5126,
			"count":4,
			"type":"VEC2"
		},
		{
			"bufferView":24,
			"componentType":5126,
			"count":25,
			"max":[
				0.9980267286300659,
				0,
				0.9921147227287292
			],
			"min":[
				-0.9980267286300659,
				0,
				-1
			],
			"type":"VEC3"
		},
		{
			"bufferView":25,
			"componentType":5126,
			"count":25,
			"type":"VEC3"
		},
		{
			"bufferView":26,
			"componentType":5126,
			"count":25,
			"type":"VEC2"
		},
		{
			"bufferView":27,
			"componentType":5126,
			"count":4,
			"max":[
				1,
				0,
				1
			],
			"min":[
				-1,
				0,
				-1
			],
			"type":"VEC3"
		},
		{
			"bufferView":28,
			"componentType":5126,
			"count":4,
			"type":"VEC3"
		},
		{
			"bufferView":29,
			"componentType":5126,
			"count":4,
			"type":"VEC2"
		},
		{
			"bufferView":30,
			"componentType":5126,
			"count":4,
			"max":[
				1,
				0,
				1
			],
			"min":[
				-1,
				0,
				-1
			],
			"type":"VEC3"
		},
		{
			"bufferView":31,
			"componentType":5126,
			"count":4,
			"type":"VEC3"
		},
		{
			"bufferView":32,
			"componentType":5126,
			"count":4,
			"type":"VEC2"
		},
		{
			"bufferView":33,
			"componentType":5126,
			"count":4,
			"max":[
				1,
				0,
				1
			],
			"min":[
				-1,
				0,
				-1
			],
			"type":"VEC3"
		},
		{
			"bufferView":34,
			"componentType":5126,
			"count":4,
			"type":"VEC3"
		},
		{
			"bufferView":35,
			"componentType":5126,
			"count":4,
			"type":"VEC2"
		},
		{
			"bufferView":36,
			"componentType":5126,
			"count":4,
			"max":[
				1,
				0,
				1
			],
			"min":[
				-1,
				0,
				-1
			],
			"type":"VEC3"
		},
		{
			"bufferView":37,
			"componentType":5126,
			"count":4,
			"type":"VEC3"
		},
		{
			"bufferView":38,
			"componentType":5126,
			"count":4,
			"type":"VEC2"
		},
		{
			"bufferView":39,
			"componentType":5126,
			"count":4,
			"max":[
				1,
				0,
				1
			],
			"min":[
				-1,
				0,
				-1
			],
			"type":"VEC3"
		},
		{
			"bufferView":40,
			"componentType":5126,
			"count":4,
			"type":"VEC3"
		},
		{
			"bufferView":41,
			"componentType":5126,
			"count":4,
			"type":"VEC2"
		},
		{
			"bufferView":42,
			"componentType":5126,
			"count":124,
			"max":[
				0.788529634475708,
				0.12999999523162842,
				0.07999999076128006
			],
			"min":[
				-0.1415296047925949,
				-0.12999999523162842,
				-0.7620000243186951
			],
			"type":"VEC3"
		},
		{
			"bufferView":43,
			"componentType":5126,
			"count":124,
			"type":"VEC3"
		},
		{
			"bufferView":44,
			"componentType":5126,
			"count":124,
			"type":"VEC2"
		},
		{
			"bufferView":45,
			"componentType":5123,
			"count":564,
			"type":"SCALAR"
		},
		{
			"bufferView":46,
			"componentType":5126,
			"count":124,
			"max":[
				0.788529634475708,
				0.12999999523162842,
				0.07999999076128006
			],
			"min":[
				-0.1415296047925949,
				-0.12999999523162842,
				-0.7620000243186951
			],
			"type":"VEC3"
		},
		{
			"bufferView":47,
			"componentType":5126,
			"count":124,
			"type":"VEC3"
		},
		{
			"bufferView":48,
			"componentType":5126,
			"count":124,
			"type":"VEC2"
		},
		{
			"bufferView":49,
			"componentType":5126,
			"count":124,
			"max":[
				0.788529634475708,
				0.12999999523162842,
				0.07999999076128006
			],
			"min":[
				-0.1415296047925949,
				-0.12999999523162842,
				-0.7620000243186951
			],
			"type":"VEC3"
		},
		{
			"bufferView":50,
			"componentType":5126,
			"count":124,
			"type":"VEC3"
		},
		{
			"bufferView":51,
			"componentType":5126,
			"count":124,
			"type":"VEC2"
		}
	],
	"bufferViews":[
		{
			"buffer":0,
			"byteLength":2460,
			"byteOffset":0,
			"target":34962
		},
		{
			"buffer":0,
			"byteLength":2460,
			"byteOffset":2460,
			"target":34962
		},
		{
			"buffer":0,
			"byteLength":1640,
			"byteOffset":4920,
			"target":34962
		},
		{
			"buffer":0,
			"byteLength":1920,
			"byteOffset":6560,
			"target":34963
		},
		{
			"buffer":0,
			"byteLength":300,
			"byteOffset":8480,
			"target":34962
		},
		{
			"buffer":0,
			"byteLength":300,
			"byteOffset":8780,
			"target":34962
		},
		{
			"buffer":0,
			"byteLength":200,
			"byteOffset":9080,
			"target":34962
		},
		{
			"buffer":0,
			"byteLength":138,
			"byteOffset":9280,
			"target":34963
		},
		{
			"buffer":0,
			"byteLength":48,
			"byteOffset":9420,
			"target":34962
		},
		{
			"buffer":0,
			"byteLength":48,
			"byteOffset":9468,
			"target":34962
		},
		{
			"buffer":0,
			"byteLength":32,
			"byteOffset":9516,
			"target":34962
		},
		{
			"buffer":0,
			"byteLength":12,
			"byteOffset":9548,
			"target":34963
		},
		{
			"buffer":0,
			"byteLength":48,
			"byteOffset":9560,
			"target":34962
		},
		{
			"buffer":0,
			"byteLength":48,
			"byteOffset":9608,
			"target":34962
		},
		{
			"buffer":0,
			"byteLength":32,
			"byteOffset":9656,
			"target":34962
		},
		{
			"buffer":0,
			"byteLength":48,
			"byteOffset":9688,
			"target":34962
		},
		{
			"buffer":0,
			"byteLength":48,
			"byteOffset":9736,
			"target":34962
		},
		{
			"buffer":0,
			"byteLength":32,
			"byteOffset":9784,
			"target":34962
		},
		{
			"buffer":0,
			"byteLength":48,
			"byteOffset":9816,
			"target":34962
		},
		{
			"buffer":0,
			"byteLength":48,
			"byteOffset":9864,
			"target":34962
		},
		{
			"buffer":0,
			"byteLength":32,
			"byteOffset":9912,
			"target":34962
		},
		{
			"buffer":0,
			"byteLength":48,
			"byteOffset":9944,
			"target":34962
		},
		{
			"buffer":0,
			"byteLength":48,
			"byteOffset":9992,
			"target":34962
		},
		{
			"buffer":0,
			"byteLength":32,
			"byteOffset":10040,
			"target":34962
		},
		{
			"buffer":0,
			"byteLength":300,
			"byteOffset":10072,
			"target":34962
		},
		{
			"buffer":0,
			"byteLength":300,
			"byteOffset":10372,
			"target":34962
		},
		{
			"buffer":0,
			"byteLength":200,
			"byteOffset":10672,
			"target":34962
		},
		{
			"buffer":0,
			"byteLength":48,
			"byteOffset":10872,
			"target":34962
		},
		{
			"buffer":0,
			"byteLength":48,
			"byteOffset":10920,
			"target":34962
		},
		{
			"buffer":0,
			"byteLength":32,
			"byteOffset":10968,
			"target":34962
		},
		{
			"buffer":0,
			"byteLength":48,
			"byteOffset":11000,
			"target":34962
		},
		{
			"buffer":0,
			"byteLength":48,
			"byteOffset":11048,
			"target":34962
		},
		{
			"buffer":0,
			"byteLength":32,
			"byteOffset":11096,
			"target":34962
		},
		{
			"buffer":0,
			"byteLength":48,
			"byteOffset":11128,
			"target":34962
		},
		{
			"buffer":0,
			"byteLength":48,
			"byteOffset":11176,
			"target":34962
		},
		{
			"buffer":0,
			"byteLength":32,
			"byteOffset":11224,
			"target":34962
		},
		{
			"buffer":0,
			"byteLength":48,
			"byteOffset":11256,
			"target":34962
		},
		{
			"buffer":0,
			"byteLength":48,
			"byteOffset":11304,
			"target":34962
		},
		{
			"buffer":0,
			"byteLength":32,
			"byteOffset":11352,
			"target":34962
		},
		{
			"buffer":0,
			"byteLength":48,
			"byteOffset":11384,
			"target":34962
		},
		{
			"buffer":0,
			"byteLength":48,
			"byteOffset":11432,
			"target":34962
		},
		{
			"buffer":0,
			"byteLength":32,
			"byteOffset":11480,
			"target":34962
		},
		{
			"buffer":0,
			"byteLength":1488,
			"byteOffset":11512,
			"target":34962
		},
		{
			"buffer":0,
			"byteLength":1488,
			"byteOffset":13000,
			"target":34962
		},
		{
			"buffer":0,
			"byteLength":992,
			"byteOffset":14488,
			"target":34962
		},
		{
			"buffer":0,
			"byteLength":1128,
			"byteOffset":15480,
			"target":34963
		},
		{
			"buffer":0,
			"byteLength":1488,
			"byteOffset":16608,
			"target":34962
		},
		{
			"buffer":0,
			"byteLength":1488,
			"byteOffset":18096,
			"target":34962
		},
		{
			"buffer":0,
			"byteLength":992,
			"byteOffset":19584,
			"target":34962
		},
		{
			"buffer":0,
			"byteLength":1488,
			"byteOffset":20576,
			"target":34962
		},
		{
			"buffer":0,
			"byteLength":1488,
			"byteOffset":22064,
			"target":34962
		},
		{
			"buffer":0,
			"byteLength":992,
			"byteOffset":23552,
			"target":34962
		}
	],
	"buffers":[
		{
			"byteLength":24544,
			"uri":"dreams.bin"
		}
	]
}
