{
	"asset":{
		"generator":"Khronos glTF Blender I/O v4.1.63",
		"version":"2.0"
	},
	"scene":0,
	"scenes":[
		{
			"name":"Scene",
			"nodes":[
				0
			]
		}
	],
	"nodes":[
		{
			"mesh":0,
			"name":"Text",
			"rotation":[
				0.3420201539993286,
				0,
				0,
				0.9396926164627075
			],
			"scale":[
				1.2000000476837158,
				1.2000000476837158,
				1.2000000476837158
			],
			"translation":[
				-2.299999952316284,
				0.14000000059604645,
				0
			]
		}
	],
	"materials":[
		{
			"doubleSided":true,
			"name":"Material.001",
			"pbrMetallicRoughness":{
				"baseColorFactor":[
					0,
					0.24127931892871857,
					0.18904036283493042,
					1
				],
				"roughnessFactor":0.5
			}
		}
	],
	"meshes":[
		{
			"name":"Text",
			"primitives":[
				{
					"attributes":{
						"POSITION":0,
						"NORMAL":1,
						"TEXCOORD_0":2
					},
					"indices":3,
					"material":0
				}
			]
		}
	],
	"accessors":[
		{
			"bufferView":0,
			"componentType":5126,
			"count":7116,
			"max":[
				3.837092399597168,
				0.14000000059604645,
				0.04909192770719528
			],
			"min":[
				0.007919009774923325,
				-0.14000000059604645,
				-0.731252133846283
			],
			"type":"VEC3"
		},
		{
			"bufferView":1,
			"componentType":5126,
			"count":7116,
			"type":"VEC3"
		},
		{
			"bufferView":2,
			"componentType":5126,
			"count":7116,
			"type":"VEC2"
		},
		{
			"bufferView":3,
			"componentType":5123,
			"count":35736,
			"type":"SCALAR"
		}
	],
	"bufferViews":[
		{
			"buffer":0,
			"byteLength":85392,
			"byteOffset":0,
			"target":34962
		},
		{
			"buffer":0,
			"byteLength":85392,
			"byteOffset":85392,
			"target":34962
		},
		{
			"buffer":0,
			"byteLength":56928,
			"byteOffset":170784,
			"target":34962
		},
		{
			"buffer":0,
			"byteLength":71472,
			"byteOffset":227712,
			"target":34963
		}
	],
	"buffers":[
		{
			"byteLength":299184,
			"uri":"click-me.bin"
		}
	]
}
