<?xml version="1.0" encoding="UTF-8" standalone="no"?>
<!DOCTYPE svg PUBLIC "-//W3C//DTD SVG 1.1//EN" "http://www.w3.org/Graphics/SVG/1.1/DTD/svg11.dtd">
<svg width="100%" height="100%" viewBox="0 0 1989 1666" version="1.1" xmlns="http://www.w3.org/2000/svg" xmlns:xlink="http://www.w3.org/1999/xlink" xml:space="preserve" xmlns:serif="http://www.serif.com/" style="fill-rule:evenodd;clip-rule:evenodd;stroke-linejoin:round;stroke-miterlimit:2;">
    <g transform="matrix(3.125,0,0,3.125,0,0)">
        <g transform="matrix(1,0,0,1,-30.4496,41.1997)">
            <path d="M416.723,-41.2C416.723,-41.2 164.723,-15.979 125.796,115.05C93.067,225.219 199.349,349.217 199.349,349.217C199.349,349.217 155.773,319.768 121.168,321.054C86.562,322.34 32.007,331.454 30.478,396.97C28.95,462.485 89.102,486.545 126.161,490.738C233.913,502.932 274.835,401.858 261.601,347.787C247.221,289.039 218.106,209.612 241.035,124.333C264.449,37.252 416.723,-41.2 416.723,-41.2Z"/>
        </g>
        <g transform="matrix(1,0,0,1,219.55,41.1997)">
            <path d="M416.723,-41.2C416.723,-41.2 164.723,-15.979 125.796,115.05C93.067,225.219 199.349,349.217 199.349,349.217C199.349,349.217 155.773,319.768 121.168,321.054C86.562,322.34 32.007,331.454 30.478,396.97C28.95,462.485 89.102,486.545 126.161,490.738C233.913,502.932 274.835,401.858 261.601,347.787C247.221,289.039 218.106,209.612 241.035,124.333C264.449,37.252 416.723,-41.2 416.723,-41.2Z"/>
        </g>
    </g>
</svg>
